# xmcd
#
# Track frame offsets:
#	150
#	18268
#	32331
#	44790
#	67032
#	81834
#	98089
#	125895
#	142542
#	154300
#	171210
#	189842
#	208268
#	223538
#	249054
#
# Disc length: 3539 seconds
#
# Revision: 1
# Processed by: cddbd v1.5.2PL0 Copyright (c) Steve Scherf et al.
# Submitted via: audiograbber 1.83.01
#
DISCID=ca0dd10f
DTITLE=Gerhard Gschoﬂmann - Acoustics
DYEAR=2003
DGENRE=Acoustic
TTITLE0=Gerhard Gschoﬂmann - D-Guitar Riffs
TTITLE1=Gerhard Gschoﬂmann - End of Summer Blues
TTITLE2=Gerhard Gschoﬂmann - Alabama interstate
TTITLE3=Gerhard Gschoﬂmann - War lies
TTITLE4=Gerhard Gschoﬂmann - What the future brings
TTITLE5=Gerhard Gschoﬂmann - From Blues to Ragtime
TTITLE6=Gerhard Gschoﬂmann - F¸r Martina and Tatjana
TTITLE7=Gerhard Gschoﬂmann - Adagio D-Moll
TTITLE8=Gerhard Gschoﬂmann - Walking Blues
TTITLE9=Gerhard Gschoﬂmann - From nightfall to daybreak
TTITLE10=Gerhard Gschoﬂmann - Two guitar rendevous
TTITLE11=Gerhard Gschoﬂmann - Open e
TTITLE12=Gerhard Gschoﬂmann - Reminiscene of a holiday
TTITLE13=Gerhard Gschoﬂmann - Spanish Bossa
TTITLE14=Gerhard Gschoﬂmann - Remember
EXTD=
EXTT0=
EXTT1=
EXTT2=
EXTT3=
EXTT4=
EXTT5=
EXTT6=
EXTT7=
EXTT8=
EXTT9=
EXTT10=
EXTT11=
EXTT12=
EXTT13=
EXTT14=
PLAYORDER=
